<?xml version="1.0" standalone="no"?>
<!DOCTYPE svg PUBLIC "-//W3C//DTD SVG 20010904//EN"
 "http://www.w3.org/TR/2001/REC-SVG-20010904/DTD/svg10.dtd">
<svg version="1.0" xmlns="http://www.w3.org/2000/svg"
 width="1280.000000pt" height="720.000000pt" viewBox="0 0 1280.000000 720.000000"
 preserveAspectRatio="xMidYMid meet">

<g transform="translate(0.000000,720.000000) scale(0.100000,-0.100000)"
fill="#000000" stroke="none">
<path d="M0 3600 l0 -3600 6400 0 6400 0 0 1209 c0 1115 -1 1209 -17 1215 -24
10 -83 -13 -84 -32 -1 -9 -2 -24 -3 -32 -2 -8 -3 -52 -4 -97 l-2 -83 -37 -18
c-21 -11 -50 -22 -64 -25 -54 -13 -70 -37 -90 -137 -11 -52 -19 -106 -18 -120
3 -55 -2 -77 -21 -98 -25 -27 -25 -32 1 -82 16 -31 26 -39 40 -35 26 9 43 -29
35 -79 -14 -84 -32 -156 -42 -166 -6 -6 -31 -13 -55 -15 -24 -2 -66 -8 -92
-15 -32 -7 -60 -7 -83 -1 -20 6 -36 6 -40 0 -3 -5 -11 -9 -18 -9 -15 0 -29
118 -15 135 10 14 37 88 56 155 8 30 24 65 35 77 24 26 19 62 -12 93 -12 12
-20 33 -20 52 0 48 -30 190 -46 215 -8 13 -41 36 -73 52 -64 33 -80 61 -56 98
24 36 19 100 -10 128 -25 26 -72 33 -104 15 -26 -13 -32 -59 -16 -107 22 -65
2 -107 -71 -147 -32 -18 -64 -44 -71 -57 -11 -24 -42 -200 -50 -291 -3 -26 2
-70 11 -101 9 -30 16 -79 16 -108 0 -34 6 -59 16 -70 11 -12 17 -44 19 -111 5
-109 -1 -124 -41 -113 -16 4 -79 8 -141 9 -61 0 -115 4 -119 9 -13 13 -34 7
-35 -10 0 -15 -2 -15 -9 2 -5 11 -9 51 -9 90 -1 38 -10 113 -22 165 l-20 96
34 51 c32 48 35 59 41 155 7 112 -5 213 -28 236 -8 8 -38 27 -67 42 -72 36
-79 50 -51 98 38 68 27 129 -28 157 -44 23 -68 19 -89 -16 -21 -35 -38 -149
-23 -158 6 -3 8 -17 5 -31 -4 -21 -16 -30 -66 -48 -34 -12 -68 -26 -76 -31
-22 -14 -43 -108 -50 -223 -5 -84 -11 -111 -25 -127 -17 -19 -18 -24 -5 -47 7
-15 24 -30 36 -35 33 -12 46 -44 39 -103 -3 -28 -10 -112 -15 -186 -8 -123
-27 -201 -44 -184 -3 3 -14 1 -25 -5 -14 -7 -22 -7 -24 -1 -2 6 -14 3 -27 -7
-14 -9 -35 -17 -47 -18 -18 0 -23 6 -28 35 -3 19 -10 56 -15 81 -5 25 -11 110
-12 190 l-3 144 32 64 c40 78 47 134 37 297 l-7 128 -36 33 c-19 18 -50 38
-69 44 -26 8 -33 16 -33 37 0 15 9 41 20 57 31 46 26 90 -12 126 -18 16 -42
29 -53 29 -25 0 -71 -57 -67 -82 2 -10 -2 -18 -9 -18 -9 0 -10 -16 -6 -60 l7
-60 -69 -35 c-81 -40 -82 -42 -106 -211 -15 -102 -14 -117 1 -190 9 -43 16
-115 15 -159 -2 -200 -11 -319 -26 -372 -12 -41 -16 -85 -13 -153 l3 -95 -70
3 c-38 2 -74 6 -78 9 -4 3 -5 24 -2 46 4 26 0 69 -10 112 -12 51 -16 114 -15
234 0 97 -4 178 -11 198 -10 30 -8 38 13 71 53 79 56 89 63 183 6 78 4 106
-11 152 -17 56 -19 57 -93 94 -84 42 -95 60 -62 104 22 29 21 69 -1 116 -14
28 -70 46 -104 33 -33 -13 -42 -42 -43 -134 0 -43 -3 -81 -5 -85 -3 -4 -30
-16 -61 -26 -30 -11 -64 -28 -74 -40 -24 -27 -51 -109 -51 -157 0 -22 -5 -70
-11 -108 -10 -65 -9 -70 17 -122 35 -66 54 -119 48 -130 -17 -26 -23 -130 -12
-208 9 -73 9 -97 -5 -159 -10 -41 -17 -93 -17 -116 0 -24 -3 -50 -6 -59 -8
-20 -51 -21 -122 -2 -30 8 -71 13 -92 10 -52 -6 -70 20 -70 98 0 31 -7 77 -15
101 -18 53 -19 77 -9 196 5 73 13 106 35 148 15 30 31 75 35 100 3 24 17 57
30 73 29 34 30 54 3 81 -13 13 -24 42 -30 82 -20 132 -28 202 -23 206 2 3 11
-4 19 -15 14 -18 14 -18 15 4 0 13 -4 20 -10 17 -5 -3 -10 -1 -10 5 0 6 -4 9
-9 5 -6 -3 -15 4 -21 16 -9 15 -18 19 -35 15 -14 -4 -27 0 -35 9 -7 8 -20 15
-30 15 -10 0 -22 6 -28 13 -12 14 -5 58 11 69 7 4 7 25 1 59 -7 39 -16 57 -36
72 -41 31 -87 25 -120 -14 -22 -26 -31 -30 -40 -21 -15 15 -48 16 -48 2 0 -5
-10 -10 -22 -10 -18 0 -20 -2 -8 -10 9 -6 18 -6 24 0 14 14 26 12 26 -4 0 -9
8 -12 25 -8 23 4 25 1 26 -34 1 -22 3 -31 6 -21 6 23 23 22 23 -3 0 -11 -4
-20 -9 -20 -5 0 -7 -15 -4 -33 4 -31 0 -35 -57 -72 -34 -22 -66 -47 -70 -55
-4 -8 -13 -51 -19 -95 -20 -144 -21 -145 -39 -145 -10 0 -39 13 -65 30 -26 16
-65 39 -87 50 -26 13 -47 34 -60 60 -11 21 -27 43 -36 48 -8 5 -21 20 -27 33
-7 13 -38 38 -70 55 -95 50 -96 52 -58 128 37 72 36 92 -10 131 -41 34 -83 33
-106 -2 -20 -30 -35 -133 -22 -148 5 -5 9 -24 9 -42 0 -49 -24 -44 -171 37
-71 39 -140 70 -154 70 -32 0 -71 -24 -109 -67 -16 -18 -32 -33 -37 -33 -12 0
-3 53 14 86 30 59 30 70 -4 108 -18 21 -40 36 -53 36 -19 -1 -18 -2 7 -16 33
-18 35 -24 5 -17 -19 4 -20 3 -8 -7 12 -10 11 -11 -7 -7 -30 7 -66 -50 -68
-108 -1 -48 -31 -94 -65 -100 -20 -4 -58 -30 -69 -47 -13 -21 -50 -285 -46
-328 1 -14 7 -36 13 -50 5 -14 8 -28 5 -33 -2 -4 0 -22 6 -40 5 -17 15 -66 21
-107 7 -41 20 -105 31 -141 24 -83 25 -106 4 -89 -8 7 -15 25 -15 40 0 15 -6
30 -14 33 -8 3 -17 16 -20 29 -3 13 -3 -4 -1 -37 3 -45 -2 -81 -20 -140 -21
-66 -25 -101 -25 -196 0 -103 -2 -117 -18 -121 -9 -3 -26 -1 -37 3 -11 4 -36
8 -56 8 -45 1 -52 20 -43 109 5 41 2 74 -9 108 -12 36 -17 97 -18 224 -2 96
-7 189 -12 206 -8 27 -4 40 32 102 40 68 41 73 41 159 0 56 -6 107 -16 136
-14 43 -22 50 -78 78 -33 17 -69 38 -79 46 -22 20 -22 62 0 93 35 50 1 110
-60 105 -17 -2 -35 -3 -39 -4 -13 -2 -22 -46 -20 -101 3 -77 -4 -96 -37 -110
-16 -6 -32 -18 -35 -26 -3 -8 -19 -14 -40 -14 -26 0 -34 -4 -30 -14 3 -7 -2
-16 -11 -20 -9 -3 -15 -11 -13 -18 1 -7 -5 -33 -14 -58 -9 -25 -21 -85 -27
-135 l-12 -90 31 -65 c17 -36 35 -71 39 -79 4 -8 1 -37 -6 -65 -9 -36 -11 -88
-7 -181 5 -105 3 -138 -10 -174 -9 -24 -16 -73 -16 -110 0 -97 -6 -111 -46
-111 -18 0 -36 4 -39 10 -3 5 -28 10 -54 10 -31 0 -53 5 -61 15 -7 9 -18 14
-24 12 -6 -2 -16 8 -22 23 -9 20 -18 25 -40 24 -24 -1 -29 -5 -26 -25 3 -22 2
-22 -12 5 -18 32 -21 48 -5 26 8 -11 9 -8 5 15 -23 114 -29 225 -17 291 10 53
11 86 3 139 -11 73 -1 143 30 197 22 38 17 241 -7 308 -19 51 -23 56 -70 73
-67 24 -96 57 -88 100 3 17 10 35 16 38 5 4 6 24 2 47 -7 46 -31 82 -42 67 -5
-5 -17 -12 -28 -13 -36 -7 -50 -41 -46 -120 l2 -72 -48 -21 c-26 -11 -59 -25
-73 -32 -39 -20 -58 -87 -62 -218 l-3 -114 33 -47 c24 -35 31 -54 26 -73 -3
-14 -3 -33 1 -42 3 -10 8 -85 10 -168 4 -186 -12 -260 -58 -271 -15 -3 -33 -1
-40 4 -18 14 -87 20 -88 7 0 -5 -10 28 -21 75 -11 47 -21 126 -22 175 -1 50
-6 122 -10 162 -8 66 -7 77 17 126 14 30 30 72 35 93 16 64 0 293 -23 330 -7
11 -39 34 -69 50 -63 32 -76 57 -57 109 14 40 14 95 0 95 -5 0 -7 6 -4 13 4 6
0 4 -8 -6 -8 -9 -25 -17 -38 -18 l-24 0 25 -12 c35 -16 36 -17 20 -27 -8 -5
-22 -7 -31 -5 -20 7 -44 -44 -36 -74 6 -25 -27 -72 -93 -131 -49 -44 -51 -47
-65 -130 -19 -112 -19 -149 4 -252 10 -48 16 -89 14 -92 -3 -3 -7 -65 -10
-138 -2 -73 -11 -160 -20 -193 -8 -33 -22 -88 -31 -122 -9 -37 -22 -65 -31
-68 -9 -3 -28 -23 -44 -44 -31 -44 -63 -55 -89 -28 -14 13 -18 34 -18 86 0 38
-7 88 -15 112 -19 53 -11 257 11 274 18 14 44 89 58 167 6 38 19 75 30 87 15
17 17 24 8 33 -7 7 -12 8 -12 3 0 -6 -5 -3 -10 5 -5 8 -17 15 -27 15 -13 0
-18 7 -17 25 1 14 -5 28 -12 33 -10 5 -12 27 -9 79 3 63 0 76 -22 110 -18 26
-33 38 -49 38 -19 0 -24 5 -24 25 0 14 -5 25 -12 25 -6 0 -9 3 -5 6 3 4 0 13
-8 21 -17 17 -20 89 -4 98 9 6 7 37 -7 86 -5 18 -45 39 -73 39 -24 0 -46 -25
-31 -35 8 -5 7 -10 -3 -18 -13 -10 -13 -19 -3 -60 19 -70 4 -106 -57 -143 -83
-50 -86 -53 -102 -139 -8 -44 -19 -99 -25 -123 -13 -53 -13 -156 0 -202 5 -19
11 -61 13 -92 2 -34 10 -65 20 -76 11 -12 20 -54 28 -129 10 -99 9 -117 -6
-160 -21 -60 -36 -214 -24 -255 4 -17 5 -36 1 -42 -8 -13 -54 -15 -63 -2 -4 5
-24 10 -45 11 -22 1 -52 9 -67 18 l-28 15 36 6 c19 4 33 11 30 17 -4 5 -1 9 6
9 9 0 9 3 0 14 -9 10 -9 15 -1 18 7 2 3 14 -10 30 -17 22 -19 31 -10 48 9 17
6 26 -23 55 -19 19 -39 35 -44 35 -6 0 -21 11 -34 25 -13 13 -34 25 -47 25
-12 0 -25 6 -28 14 -3 8 -12 12 -20 9 -8 -3 -14 -4 -15 -2 0 2 -4 56 -9 119
-4 63 -13 155 -20 203 l-12 88 36 39 c39 44 42 54 50 155 6 81 -14 199 -37
222 -9 9 -42 30 -74 47 -51 27 -58 35 -61 64 -2 19 4 44 12 57 50 76 -16 179
-91 143 -33 -16 -40 -42 -42 -150 l-1 -78 -37 -18 c-21 -11 -55 -25 -75 -31
-20 -7 -42 -18 -48 -26 -20 -24 -50 -156 -50 -221 0 -67 -17 -114 -41 -114
-26 0 -68 39 -89 83 -24 49 -24 48 -5 41 20 -8 19 16 -2 31 -12 9 -16 25 -15
57 2 44 1 45 -24 40 -20 -4 -25 -1 -22 9 3 8 -4 33 -15 57 -10 24 -15 47 -11
50 3 4 9 1 11 -5 3 -7 10 -13 16 -13 6 0 -2 13 -18 30 -15 16 -31 28 -34 25
-4 -2 -8 6 -8 17 -1 12 -7 25 -14 29 -8 4 2 16 29 33 36 22 41 30 39 56 -2 16
-8 35 -13 42 -6 7 -16 26 -23 42 -11 26 -11 28 4 16 13 -11 14 -10 9 5 -5 13
-4 16 4 11 7 -4 12 -2 12 3 0 16 -23 13 -46 -4 -20 -15 -84 -21 -84 -7 0 4 5
13 12 20 9 9 3 12 -30 12 -30 0 -42 -4 -43 -15 -1 -8 -2 -21 -3 -27 -1 -7 -11
-12 -24 -10 -12 2 -22 0 -22 -5 0 -15 40 -73 50 -73 6 0 10 -29 10 -70 0 -40
-4 -70 -10 -70 -5 0 -10 -11 -10 -25 0 -14 -5 -25 -11 -25 -6 0 -8 8 -5 18 3
9 8 53 11 96 l5 78 -27 -6 c-36 -8 -42 -2 -77 64 -16 30 -36 63 -44 73 -8 9
-12 20 -8 24 4 4 11 1 15 -6 5 -7 14 -10 20 -6 7 4 18 1 26 -5 8 -7 15 -9 15
-5 0 11 -53 55 -65 55 -5 0 -3 -5 5 -10 8 -5 10 -10 4 -10 -21 0 -24 14 -7 32
16 18 16 18 0 12 -12 -4 -17 -1 -17 10 0 9 7 16 15 16 8 0 15 9 15 20 0 13 7
20 18 20 37 0 57 43 25 54 -22 7 -56 28 -64 40 -4 5 -27 7 -52 4 -36 -4 -48
-1 -61 13 -9 11 -13 19 -11 19 7 0 -10 21 -49 63 l-29 31 -17 -22 c-10 -11
-20 -18 -24 -15 -11 12 -6 -34 9 -77 14 -39 14 -45 -1 -61 -23 -26 -55 -34
-65 -18 -7 11 -9 11 -9 1 0 -7 -5 -10 -10 -7 -6 4 -8 11 -4 16 3 6 -2 19 -11
29 -10 11 -19 34 -21 52 -2 18 -15 43 -29 56 -25 23 -25 23 -25 2 0 -12 -4
-18 -11 -15 -5 4 -8 14 -6 23 2 10 -7 31 -19 48 -13 17 -20 34 -17 38 4 3 2 6
-3 6 -5 0 -10 14 -11 31 -1 17 -7 37 -13 43 -5 7 -7 33 -4 57 3 24 7 68 9 98
2 29 8 57 13 60 6 3 13 18 17 33 5 21 14 28 38 30 24 2 33 8 35 25 2 13 14 31
28 42 16 13 24 29 24 49 0 17 6 37 14 45 39 38 66 206 66 402 0 143 10 184 30
130 6 -14 11 -38 11 -53 2 -24 2 -24 6 -4 8 38 23 24 23 -22 0 -24 5 -46 11
-48 7 -2 15 -56 20 -138 12 -181 15 -200 39 -200 31 0 102 42 108 62 3 15 11
18 28 14 32 -8 45 18 33 69 -5 22 -11 61 -15 88 -3 26 -9 45 -14 42 -29 -18
-80 46 -80 98 0 10 -10 21 -23 26 -12 5 -29 20 -36 34 -7 14 -19 23 -26 21 -6
-3 -25 14 -41 38 -16 24 -32 45 -36 46 -5 2 -8 11 -8 20 0 12 6 8 19 -11 10
-16 21 -27 24 -25 4 2 13 -6 21 -17 14 -19 15 -19 22 10 5 17 7 36 6 43 -2 6
2 12 8 12 9 0 12 -8 13 -30 0 -3 15 -18 35 -35 35 -29 35 -29 27 -5 -4 14 -15
36 -25 50 -10 14 -30 48 -44 75 -15 28 -32 58 -39 68 -10 15 -9 20 6 29 13 7
17 17 13 34 -7 25 8 34 18 12 5 -10 7 -10 12 0 3 6 15 11 27 11 17 -1 18 -2 5
-6 -17 -4 -26 -34 -10 -32 21 4 32 -3 32 -20 0 -26 18 -37 26 -16 5 12 9 13
20 4 8 -6 14 -18 14 -26 0 -8 7 -21 15 -29 8 -9 15 -32 16 -52 1 -32 2 -34 8
-12 7 23 11 19 49 -50 61 -111 76 -126 47 -46 -19 50 -23 72 -15 81 7 9 11 99
11 258 1 236 1 245 20 240 20 -6 26 11 9 22 -13 8 -2 46 17 60 10 8 17 45 23
120 13 171 34 335 42 335 4 0 9 12 9 28 1 17 3 21 6 9 4 -14 8 -16 19 -6 8 6
21 8 31 3 29 -12 67 -11 78 3 6 7 33 18 60 25 28 7 66 25 86 41 20 15 42 27
50 27 8 0 23 7 33 15 11 8 29 15 39 15 11 0 30 12 43 26 13 14 29 22 34 19 15
-9 73 42 87 76 8 19 19 29 33 29 11 0 20 5 20 11 0 6 6 9 13 6 6 -2 23 1 37 9
14 7 53 21 87 31 35 10 63 21 63 26 0 4 19 7 43 7 43 1 94 30 82 49 -5 8 41
23 80 26 6 0 9 8 9 18 -1 12 9 18 35 23 48 9 54 13 40 30 -9 12 -6 14 21 14
26 0 30 3 21 13 -13 16 -5 27 20 27 16 0 17 4 9 26 -13 34 -13 34 10 34 13 0
24 10 30 25 5 13 18 30 30 37 11 7 20 18 20 24 0 14 55 38 69 30 5 -4 27 2 47
13 25 14 42 17 53 11 13 -6 20 -2 30 21 16 36 31 38 31 4 0 -14 5 -25 11 -25
6 0 9 7 6 15 -4 8 -1 17 5 21 7 4 6 9 -3 15 -10 6 -6 9 14 9 15 0 27 5 27 11
0 5 -6 7 -12 4 -7 -4 -4 1 6 9 11 9 26 16 33 16 7 0 13 7 13 15 0 22 -4 30
-12 28 -5 -2 -8 0 -8 5 0 4 20 16 44 26 41 18 44 22 39 48 -5 25 -3 28 20 28
14 0 27 5 29 11 2 5 12 12 23 13 11 2 19 9 18 15 -2 6 6 11 18 11 13 0 18 4
13 11 -5 8 1 10 19 6 21 -6 24 -4 21 11 -6 21 35 40 85 40 24 1 40 8 53 24 10
13 18 17 18 11 0 -8 13 -13 30 -13 17 0 30 -4 30 -10 0 -5 5 -10 10 -10 6 0
10 6 10 14 0 8 9 18 20 21 11 3 20 11 20 16 0 6 9 8 19 4 11 -3 22 -1 26 5 10
16 30 12 55 -10 29 -25 33 -25 56 1 14 16 15 23 7 26 -22 8 -14 23 12 23 14 0
25 4 25 8 0 4 16 6 36 4 22 -3 39 0 44 7 4 8 43 14 99 16 87 4 92 3 86 -16 -8
-25 7 -24 29 0 14 15 23 18 42 11 16 -6 37 -5 65 5 23 8 50 15 60 15 11 0 19
6 19 14 0 28 127 37 154 11 8 -8 24 -15 36 -15 33 0 80 -28 74 -44 -3 -9 6
-19 25 -27 19 -8 31 -21 31 -33 0 -12 5 -16 16 -12 9 3 18 6 20 6 2 0 4 7 4
15 0 8 5 15 10 15 6 0 10 -7 10 -15 0 -17 16 -20 25 -5 4 6 17 1 34 -11 20
-14 27 -27 24 -43 -4 -17 2 -25 23 -35 17 -8 30 -9 32 -3 1 5 13 7 24 4 21 -5
21 -6 2 -14 -13 -5 -9 -6 12 -2 24 4 33 1 38 -12 4 -10 1 -21 -6 -26 -7 -4 -8
-8 -3 -8 6 0 21 7 33 16 12 8 22 11 22 7 0 -5 16 -9 36 -10 20 -1 40 -7 45
-15 6 -10 9 -10 9 0 0 6 7 12 15 12 8 0 15 -7 15 -15 0 -17 36 -21 42 -5 2 6
19 -1 38 -15 21 -16 36 -21 40 -14 4 5 7 -4 8 -20 0 -17 3 -35 7 -41 11 -18
25 -10 25 15 0 18 4 23 15 19 9 -4 14 -14 13 -23 -2 -12 6 -16 37 -17 21 -1
41 -6 43 -13 2 -6 9 -8 14 -4 7 4 9 -1 6 -14 -5 -17 0 -20 36 -21 22 0 46 -1
51 -2 48 -10 90 15 45 27 -26 7 -25 19 0 33 11 6 20 7 19 3 -5 -29 2 -35 20
-19 18 16 22 16 41 3 18 -12 19 -16 5 -27 -23 -19 -7 -32 20 -14 13 9 30 14
37 11 8 -4 6 -6 -4 -6 -22 -1 -22 -2 -4 -37 17 -32 13 -44 -15 -44 -11 0 -17
-4 -14 -10 8 -13 75 -13 75 0 0 7 7 7 20 0 12 -6 29 -9 39 -5 10 3 24 -1 31
-10 7 -8 25 -15 41 -15 16 0 29 -4 29 -8 0 -5 -18 -7 -40 -6 -34 2 -39 0 -29
-12 7 -9 20 -12 33 -9 17 5 18 4 6 -4 -13 -9 -12 -12 8 -17 12 -4 22 -14 22
-23 0 -13 2 -13 9 -2 7 11 11 10 19 -5 10 -18 11 -18 17 -1 9 22 25 22 25 0 0
-15 1 -15 18 0 23 21 32 21 32 3 0 -7 8 -16 19 -19 10 -2 24 -18 32 -35 14
-33 29 -33 29 -1 0 10 5 19 11 19 5 0 7 -5 4 -10 -3 -6 1 -13 9 -16 9 -3 17
-18 17 -33 1 -17 3 -20 6 -8 6 21 43 23 43 2 0 -9 -12 -18 -30 -21 -31 -7 -42
-24 -15 -24 9 0 20 -12 25 -26 8 -19 16 -25 29 -21 13 3 18 0 15 -8 -3 -6 12
-29 32 -49 28 -28 34 -40 25 -46 -16 -9 -6 -30 15 -30 9 0 14 -11 14 -32 0
-17 3 -28 7 -25 3 4 14 0 24 -9 10 -9 25 -14 34 -11 8 4 15 2 15 -3 0 -5 -9
-12 -20 -15 -35 -11 -24 -41 21 -54 33 -10 38 -15 28 -27 -6 -8 -17 -14 -24
-14 -8 0 -11 -8 -8 -19 3 -13 11 -17 25 -13 18 4 20 2 14 -21 -5 -20 -3 -27 8
-27 8 0 16 6 19 13 2 6 8 8 13 4 5 -4 2 -12 -5 -16 -19 -12 -5 -48 21 -54 12
-3 30 -1 40 4 25 13 39 1 15 -12 -18 -11 -21 -27 -9 -46 6 -9 17 -10 39 -4 26
8 31 7 26 -5 -3 -8 -13 -14 -22 -12 -9 1 -26 -3 -38 -10 -16 -9 -20 -17 -15
-34 13 -44 36 -68 64 -68 28 0 39 -22 17 -36 -6 -3 -9 -15 -6 -25 3 -11 -1
-20 -12 -22 -9 -3 0 -6 19 -7 l35 -2 -30 -7 c-34 -8 -58 -3 -49 10 3 5 -2 9
-10 9 -24 0 -19 -18 7 -26 24 -8 32 -10 60 -12 9 -1 17 -10 17 -19 1 -17 2
-17 15 0 8 12 21 17 32 13 10 -3 53 -6 96 -8 72 -2 94 -9 65 -21 -8 -3 -6 -6
5 -6 19 -1 23 -31 6 -48 -6 -6 -18 -9 -25 -6 -8 3 -14 0 -14 -6 0 -6 10 -11
22 -11 21 0 21 0 2 -14 -19 -15 -19 -15 1 -30 11 -8 27 -13 37 -10 9 3 19 0
23 -5 4 -7 13 -6 27 2 16 9 22 9 25 -1 3 -6 9 -9 15 -6 19 12 82 13 95 3 7 -7
10 -21 7 -33 -3 -14 1 -28 10 -35 17 -14 95 -17 105 -4 3 4 23 9 44 9 20 1 46
9 56 18 11 10 32 17 48 15 15 -1 36 2 46 6 9 4 33 4 52 1 22 -4 35 -3 35 4 0
5 11 10 24 10 21 0 25 -5 28 -37 3 -37 4 -38 41 -37 38 1 51 -11 20 -19 -17
-4 -17 -5 0 -6 9 0 26 -10 37 -21 22 -22 76 -19 96 6 6 8 21 14 33 14 11 0 21
3 21 8 0 4 4 13 9 21 8 12 12 12 25 2 9 -8 16 -9 16 -3 0 13 55 21 74 10 12
-7 16 -4 16 12 0 24 31 27 73 6 25 -14 27 -13 27 5 0 10 5 19 11 19 8 0 10
-14 6 -40 -3 -22 -1 -40 4 -40 5 0 9 -22 9 -49 0 -50 23 -88 39 -63 4 7 16 5
39 -10 36 -22 40 -35 15 -53 -17 -12 -9 -40 8 -29 6 3 13 -3 16 -15 6 -23 14
-26 30 -10 8 8 17 4 32 -12 11 -13 21 -17 21 -11 0 7 11 12 25 12 27 0 30 -6
15 -30 -6 -10 -4 -20 7 -32 13 -15 13 -18 2 -18 -8 0 -10 -3 -4 -8 19 -14 35
-51 25 -57 -6 -4 -8 -11 -5 -16 4 -5 -2 -9 -12 -10 -10 -1 -2 -6 17 -11 66
-19 90 -30 90 -43 0 -16 25 -26 44 -19 8 3 20 -3 27 -14 8 -10 21 -19 29 -19
8 0 20 -2 25 -3 21 -5 35 1 35 15 0 8 7 15 15 15 18 0 19 -12 4 -27 -8 -8 -5
-13 10 -18 12 -3 21 -11 21 -16 0 -5 18 -9 39 -9 26 0 41 -5 45 -16 3 -8 2
-12 -4 -9 -6 3 -10 -1 -10 -10 0 -8 -7 -18 -15 -21 -8 -4 -12 -10 -9 -15 3 -5
0 -9 -5 -9 -6 0 -11 -5 -11 -12 0 -9 3 -9 12 0 18 18 28 15 28 -8 0 -17 3 -19
19 -11 15 9 20 7 24 -9 5 -18 0 -20 -39 -20 -24 0 -44 -4 -44 -9 0 -16 26 -30
56 -30 16 1 47 -1 69 -5 24 -4 33 -3 21 2 -22 10 -31 59 -11 59 8 0 13 -9 12
-21 -1 -15 3 -20 15 -18 11 2 18 -5 20 -20 2 -18 9 -22 27 -20 14 1 27 -2 30
-7 4 -5 19 -12 35 -15 16 -3 33 -11 38 -18 6 -10 8 -10 8 -1 0 27 26 0 28 -30
2 -20 12 -39 29 -53 l26 -21 -30 -21 c-30 -22 -49 -67 -31 -78 5 -3 4 -11 -2
-19 -8 -9 -7 -14 4 -18 21 -8 16 -47 -6 -47 -10 0 -18 -7 -18 -15 0 -8 -4 -15
-10 -15 -5 0 -10 -8 -10 -17 0 -12 8 -18 25 -19 14 -1 38 -10 53 -20 25 -17
48 -23 97 -24 11 -1 27 -8 37 -17 14 -13 20 -13 33 -3 12 10 15 10 15 -4 0
-10 8 -16 21 -16 12 0 23 -8 26 -20 4 -13 14 -20 30 -20 13 0 22 -3 20 -7 -9
-15 13 -53 30 -53 16 -1 16 -2 -2 -16 -19 -15 -19 -15 8 -9 17 5 27 3 27 -4 0
-6 -4 -11 -9 -11 -5 0 -22 -5 -37 -10 -19 -8 -24 -14 -17 -21 10 -10 99 -36
151 -44 13 -2 29 -9 37 -15 8 -6 24 -9 35 -5 30 10 110 -30 110 -54 0 -10 -7
-24 -15 -31 -24 -20 10 -39 69 -40 51 0 75 -17 76 -52 0 -18 -19 -26 -80 -30
-23 -2 -35 -8 -35 -18 0 -12 18 -16 95 -18 54 -2 97 -7 101 -14 9 -14 29 -1
29 18 0 8 7 14 15 14 8 0 15 -7 15 -16 0 -15 23 -44 34 -44 3 0 6 9 6 20 0 15
7 20 25 20 18 0 25 -5 25 -20 0 -17 4 -19 25 -14 45 11 59 9 63 -8 2 -11 -3
-18 -12 -18 -9 0 -16 -4 -16 -10 0 -5 6 -10 14 -10 7 0 16 -9 19 -20 4 -17 13
-20 64 -19 32 1 48 4 36 6 -13 2 -23 9 -23 14 0 5 -9 9 -21 9 -12 0 -23 8 -26
20 -3 11 -10 20 -17 20 -6 0 2 7 18 15 38 20 46 19 46 -5 0 -11 5 -20 11 -20
6 0 9 6 6 14 -4 11 3 16 26 18 l32 3 3 2193 2 2192 -6400 0 -6400 0 0 -3600z
m3407 3338 c-3 -8 -6 -5 -6 6 -1 11 2 17 5 13 3 -3 4 -12 1 -19z m18 -88 c3
-5 -1 -10 -10 -10 -9 0 -13 5 -10 10 3 6 8 10 10 10 2 0 7 -4 10 -10z m-4 -74
c-20 -26 -20 -76 -1 -109 25 -40 26 -66 3 -63 -35 5 -55 124 -28 163 8 12 12
30 9 40 -5 17 -4 17 10 -1 9 -11 12 -24 7 -30z m48 -234 c12 -43 3 -58 -25
-37 -18 14 -18 14 0 15 19 0 19 10 0 54 -5 13 -4 17 4 12 6 -4 16 -23 21 -44z
m2801 -232 c0 -5 -7 -10 -15 -10 -8 0 -15 5 -15 10 0 6 7 10 15 10 8 0 15 -4
15 -10z m-2705 -60 c-9 -14 -25 5 -25 30 0 12 3 12 16 -2 9 -9 13 -21 9 -28z
m3922 -6 c-3 -3 -12 -4 -19 -1 -8 3 -5 6 6 6 11 1 17 -2 13 -5z m-3855 -89
c10 -11 17 -29 17 -40 0 -16 -3 -14 -11 8 -5 15 -20 30 -32 33 -13 3 -22 14
-23 25 -2 18 0 19 15 8 9 -7 25 -22 34 -34z m4388 -84 c0 -6 -4 -13 -10 -16
-5 -3 -10 1 -10 9 0 9 5 16 10 16 6 0 10 -4 10 -9z m126 1 c-5 -8 -66 -4 -66
4 0 2 16 4 36 4 19 0 33 -4 30 -8z m-4326 -143 c0 -21 -3 -39 -7 -39 -5 0 -8
20 -8 44 0 24 3 42 8 39 4 -2 7 -22 7 -44z m-1980 -9 c0 -13 -5 -18 -14 -14
-8 3 -12 12 -9 20 8 21 23 17 23 -6z m1836 -56 c-3 -9 -6 -24 -6 -35 0 -21
-15 -26 -23 -6 -6 17 10 57 24 57 6 0 8 -7 5 -16z m134 -5 c0 -11 -4 -17 -10
-14 -5 3 -10 13 -10 21 0 8 5 14 10 14 6 0 10 -9 10 -21z m-2095 -9 c3 -5 1
-10 -4 -10 -6 0 -11 5 -11 10 0 6 2 10 4 10 3 0 8 -4 11 -10z m120 -20 c0 -8
6 -20 13 -25 17 -13 11 -276 -7 -350 -7 -27 -16 -63 -20 -80 -8 -38 -48 -46
-76 -16 -19 23 -18 40 21 231 24 118 32 185 22 188 -10 4 -11 56 -1 66 12 12
48 2 48 -14z m6695 6 c0 -3 -4 -8 -10 -11 -5 -3 -10 -1 -10 4 0 6 5 11 10 11
6 0 10 -2 10 -4z m52 -8 c-9 -9 -15 -9 -24 0 -9 9 -7 12 12 12 19 0 21 -3 12
-12z m-4725 -155 c-3 -10 -5 -2 -5 17 0 19 2 27 5 18 2 -10 2 -26 0 -35z
m-2110 -35 c-3 -8 -6 -5 -6 6 -1 11 2 17 5 13 3 -3 4 -12 1 -19z m2114 -69 c1
-39 -3 -63 -16 -82 -23 -36 -29 -29 -9 11 8 18 15 47 14 65 -3 45 -1 71 5 66
2 -3 5 -30 6 -60z m99 -203 c0 -8 -7 -19 -15 -26 -13 -10 -15 -9 -15 12 0 14
3 28 6 31 9 9 24 -2 24 -17z m-143 -53 c-3 -10 -5 -4 -5 12 0 17 2 24 5 18 2
-7 2 -21 0 -30z m133 -22 c0 -10 10 -29 23 -42 20 -22 22 -32 18 -99 -3 -41
-7 -61 -9 -45 -8 68 -34 137 -53 142 -21 6 -24 25 -8 54 12 22 29 16 29 -10z
m265 -141 c3 -5 1 -10 -4 -10 -6 0 -11 5 -11 10 0 6 2 10 4 10 3 0 8 -4 11
-10z m-271 -27 c4 -9 2 -21 -3 -26 -5 -5 -7 -15 -5 -22 9 -22 -14 -27 -25 -6
-8 13 -8 28 -1 45 11 30 25 33 34 9z m157 -90 c0 -15 2 -15 9 2 6 15 6 -217 0
-245 -3 -14 -19 39 -19 65 -1 18 -10 38 -22 48 -16 14 -18 21 -9 32 6 7 10 31
8 52 -2 28 -9 41 -28 50 -24 12 -23 13 18 13 33 0 42 -4 43 -17z m-101 -19 c0
-14 -4 -23 -10 -19 -5 3 -10 15 -10 26 0 10 5 19 10 19 6 0 10 -12 10 -26z
m-60 -10 c0 -8 -4 -12 -10 -9 -5 3 -10 13 -10 21 0 8 5 12 10 9 6 -3 10 -13
10 -21z m-59 -41 c-9 -16 -10 -16 -11 4 0 12 3 30 7 40 7 16 8 16 11 -4 2 -12
-1 -30 -7 -40z m5626 -122 c-9 -11 -9 -15 1 -18 28 -10 10 -28 -28 -28 -41 0
-52 8 -24 19 9 3 14 12 11 20 -7 18 -4 21 26 21 21 0 23 -3 14 -14z m-5427
-132 c0 -21 -4 -39 -10 -39 -5 0 -10 21 -10 46 0 27 4 43 10 39 6 -3 10 -24
10 -46z m-840 21 c0 -11 -4 -20 -8 -20 -4 0 -8 9 -9 20 -1 11 2 20 8 20 5 0 9
-9 9 -20z m6230 -10 c0 -5 -4 -10 -9 -10 -6 0 -13 5 -16 10 -3 6 1 10 9 10 9
0 16 -4 16 -10z m256 -113 c4 -4 -5 -7 -19 -7 -15 0 -27 4 -27 8 0 10 36 9 46
-1z m-6530 -348 c36 -60 84 -114 116 -130 29 -15 38 -26 38 -44 0 -21 -5 -25
-30 -25 -38 0 -65 -38 -62 -88 2 -19 -5 -57 -15 -84 -14 -38 -15 -55 -6 -81
17 -50 16 -118 -3 -131 -15 -11 -15 -17 0 -66 9 -31 16 -90 16 -141 0 -75 -3
-88 -20 -100 -16 -11 -21 -30 -26 -96 -4 -46 -11 -83 -17 -83 -5 0 -7 17 -3
43 8 53 26 226 26 250 0 9 5 17 10 17 6 0 11 -8 11 -17 1 -17 2 -17 6 -1 2 10
-7 30 -21 45 l-26 28 0 -28 c0 -16 -5 -49 -11 -74 -10 -36 -14 -42 -21 -29 -6
10 -5 29 2 50 8 26 9 53 1 84 -1 1 -10 -2 -21 -8 -22 -12 -26 -49 -10 -81 8
-15 7 -23 -4 -34 -24 -24 -30 -108 -28 -375 2 -145 -2 -281 -8 -315 -5 -33
-14 -85 -19 -115 l-9 -55 -2 80 c-1 44 -5 89 -10 100 -8 19 -9 19 -9 -2 -1
-28 -31 -31 -31 -4 0 28 -11 52 -21 46 -14 -9 -22 41 -9 64 8 16 8 21 -1 21
-15 0 -5 130 16 195 8 27 13 56 10 64 -3 8 -1 17 4 21 6 3 12 28 14 55 3 40 7
50 20 49 21 -2 21 1 0 32 -23 36 -23 158 0 259 10 44 21 132 23 195 2 63 6
133 9 155 4 28 0 50 -13 74 -16 31 -17 39 -5 73 7 22 11 43 8 48 -3 5 -1 19 5
30 12 23 17 64 25 227 3 59 10 112 15 117 7 7 10 2 10 -14 0 -34 11 -70 20
-70 5 0 12 30 16 68 l8 67 11 -125 c6 -69 15 -132 21 -141z m439 146 c26 -52
53 -90 64 -90 17 0 56 -51 53 -69 -2 -10 1 -22 6 -25 7 -4 7 -12 3 -20 -12
-19 -25 -8 -50 41 -12 24 -35 63 -51 88 -50 78 -70 120 -57 117 6 -1 21 -20
32 -42z m372 -47 c-2 -18 -4 -4 -4 32 0 36 2 50 4 33 2 -18 2 -48 0 -65z m-54
-21 c4 -29 2 -45 -3 -42 -6 4 -10 27 -10 52 0 58 6 53 13 -10z m64 -199 c-2
-18 -4 -6 -4 27 0 33 2 48 4 33 2 -15 2 -42 0 -60z m-47 51 c0 -11 -4 -17 -10
-14 -5 3 -10 13 -10 21 0 8 5 14 10 14 6 0 10 -9 10 -21z m7165 -99 c3 -5 1
-10 -4 -10 -6 0 -11 5 -11 10 0 6 2 10 4 10 3 0 8 -4 11 -10z m-62 -17 c-7 -2
-19 -2 -25 0 -7 3 -2 5 12 5 14 0 19 -2 13 -5z m-7881 -1031 c-6 -299 -38
-629 -59 -609 -2 3 1 70 7 148 6 79 15 216 20 305 9 170 19 259 28 249 3 -3 5
-45 4 -93z m-993 -196 c7 -8 23 -80 37 -160 40 -239 121 -541 170 -638 31 -62
76 -198 99 -302 9 -44 23 -97 31 -119 14 -39 6 -77 -16 -77 -10 0 -50 126 -70
220 -22 102 -32 135 -72 228 -21 51 -50 134 -63 185 -13 50 -28 103 -33 117
-11 27 -61 203 -87 310 -22 86 -45 231 -39 242 8 13 30 10 43 -6z m841 -146
c0 -11 -4 -20 -10 -20 -5 0 -10 2 -10 4 0 2 -3 11 -6 20 -4 11 -1 16 10 16 9
0 16 -8 16 -20z m2500 -334 c0 -2 -11 -6 -25 -8 -14 -3 -25 -1 -25 3 0 5 11 9
25 9 14 0 25 -2 25 -4z m-50 -46 c0 -5 -5 -10 -11 -10 -5 0 -7 5 -4 10 3 6 8
10 11 10 2 0 4 -4 4 -10z m-1563 -40 c-2 -36 -3 -36 -18 -9 -9 17 -8 20 2 14
9 -6 11 -2 7 13 -4 12 -2 20 3 17 4 -3 7 -19 6 -35z m33 -132 c0 -9 5 -18 12
-20 6 -2 9 -11 6 -18 -6 -15 -29 28 -42 80 l-7 25 15 -25 c9 -14 15 -32 16
-42z m5590 -8 c0 -5 -4 -10 -9 -10 -6 0 -13 5 -16 10 -3 6 1 10 9 10 9 0 16
-4 16 -10z m-5510 -129 c16 -33 26 -62 22 -65 -5 -3 -20 24 -34 59 -14 36 -24
65 -22 65 2 0 17 -27 34 -59z m-972 -40 c28 -24 28 -35 -2 -49 -30 -13 -46 1
-46 40 0 33 15 35 48 9z m2619 -43 c-3 -8 -6 -5 -6 6 -1 11 2 17 5 13 3 -3 4
-12 1 -19z m-11 -39 c18 -60 17 -76 -5 -89 -42 -22 -64 39 -40 109 15 42 29
35 45 -20z m-292 25 c11 -27 7 -64 -11 -97 -9 -18 -22 -50 -29 -72 l-13 -40 0
59 c-1 57 25 166 40 166 4 0 10 -7 13 -16z m601 -91 c-3 -14 -10 -21 -17 -17
-11 7 -5 95 9 117 10 15 17 -67 8 -100z m269 16 c-5 -17 -13 -31 -19 -32 -15
-3 -18 79 -4 105 13 23 13 23 22 -9 6 -20 6 -45 1 -64z m3265 44 c10 -38 10
-49 -2 -61 -22 -21 -37 -6 -37 38 0 80 22 93 39 23z m1301 4 c0 -44 -10 -78
-21 -71 -10 6 -12 58 -3 91 9 32 24 18 24 -20z m-6492 -30 c9 1 11 0 5 -3 -18
-8 -16 -27 2 -20 9 3 15 0 15 -9 0 -33 -21 -22 -55 27 -40 60 -48 89 -9 37 14
-19 33 -33 42 -32z m4905 36 c7 -36 -14 -98 -33 -98 -22 0 -24 32 -5 81 19 51
30 56 38 17z m2932 -18 c13 -35 5 -55 -22 -55 -14 0 -18 55 -7 85 8 20 15 14
29 -30z m-8037 7 c23 -47 24 -52 13 -52 -11 0 -41 51 -41 70 0 19 15 10 28
-18z m4045 -21 c-3 -54 -17 -72 -33 -42 -16 30 -3 93 19 89 12 -3 16 -14 14
-47z m2364 -3 c-2 -13 -4 -5 -4 17 -1 22 1 32 4 23 2 -10 2 -28 0 -40z m1329
-33 c-10 -25 -22 -45 -27 -45 -13 0 -11 19 7 81 15 49 18 52 27 32 7 -17 5
-34 -7 -68z m-7272 59 c9 -25 -4 -84 -19 -84 -19 0 -23 20 -12 62 10 41 21 48
31 22z m8008 -35 c-4 -39 -15 -54 -32 -44 -10 6 -6 56 7 78 12 20 28 -2 25
-34z m-7697 1 c7 -30 -7 -60 -26 -60 -10 0 -12 34 -3 68 9 31 21 28 29 -8z
m2375 -21 c0 -45 -16 -83 -31 -74 -12 8 -12 67 1 100 14 36 30 22 30 -26z
m3840 5 c0 -32 -4 -44 -12 -42 -18 6 -21 29 -9 61 15 39 21 33 21 -19z m300 1
c0 -32 -10 -56 -21 -49 -10 6 -12 45 -3 68 8 22 24 10 24 -19z m-4591 -55 l0
-45 -16 38 c-9 23 -13 47 -8 65 7 25 8 25 15 7 5 -11 9 -40 9 -65z m3086 -8
c-5 -14 -7 -14 -16 -2 -9 15 -3 65 10 85 8 13 14 -63 6 -83z m-3385 38 c0 -16
-4 -30 -10 -30 -5 0 -10 14 -10 30 0 17 5 30 10 30 6 0 10 -13 10 -30z m1060
0 c4 -26 0 -40 -10 -40 -5 0 -10 17 -10 37 0 35 16 38 20 3z m2650 -17 c0 -7
-4 -13 -10 -13 -5 0 -10 12 -10 28 0 21 2 24 10 12 5 -8 10 -21 10 -27z
m-6043 -35 c-3 -8 -6 -5 -6 6 -1 11 2 17 5 13 3 -3 4 -12 1 -19z m193 -13 c0
-5 -5 -3 -10 5 -5 8 -10 20 -10 25 0 6 5 3 10 -5 5 -8 10 -19 10 -25z m67 -17
c4 -7 7 -22 8 -33 0 -14 7 -20 23 -21 23 -1 51 -29 52 -51 0 -6 -7 -40 -15
-75 -8 -35 -15 -91 -17 -125 -3 -68 -11 -75 -52 -48 -18 12 -30 13 -50 6 -30
-12 -25 -23 -49 129 -8 52 -18 106 -22 120 -6 22 -5 23 7 8 7 -9 18 -24 23
-33 9 -14 14 -15 37 -4 15 6 35 23 43 35 14 21 14 28 0 60 -8 20 -15 38 -15
40 0 9 20 3 27 -8z m880 -73 c-1 -19 -5 -35 -9 -35 -4 0 -8 16 -8 35 0 19 4
35 9 35 5 0 9 -16 8 -35z m2935 -182 c46 -36 84 -69 86 -73 2 -4 -3 -14 -10
-21 -10 -10 -13 -57 -13 -177 0 -144 -2 -165 -18 -176 -9 -8 -22 -27 -28 -44
-9 -28 -14 -30 -40 -25 -19 3 -29 1 -29 -6 0 -7 -4 -9 -10 -6 -6 4 -10 59 -10
133 0 70 -6 156 -13 192 -12 57 -12 270 -1 270 2 0 41 -30 86 -67z m1102 -50
c15 -60 33 -129 41 -154 8 -26 15 -64 15 -85 0 -22 5 -57 11 -79 6 -22 13 -51
16 -65 l5 -25 -117 0 -117 0 7 35 c4 19 12 72 20 118 7 45 17 88 23 95 5 6 14
37 20 67 10 53 45 200 48 200 0 0 13 -48 28 -107z m-3846 -23 c11 -41 25 -100
31 -130 13 -67 19 -210 9 -210 -5 0 -8 -6 -8 -14 0 -8 -5 -18 -10 -21 -7 -4
-9 2 -7 17 2 12 2 17 0 10 -3 -7 -9 -9 -15 -6 -7 4 -8 2 -4 -4 4 -7 -7 -18
-26 -28 -48 -24 -67 -44 -61 -62 4 -13 3 -14 -5 -3 -7 10 -11 10 -17 1 -11
-18 15 -31 47 -24 15 3 33 2 40 -2 16 -10 -22 -22 -74 -23 -43 -1 -42 -7 -27
114 5 44 13 112 18 150 4 39 13 90 19 115 6 25 21 90 33 145 18 77 24 94 30
75 4 -14 16 -59 27 -100z m599 57 c23 -58 42 -151 49 -242 3 -39 2 -45 -6 -27
-5 12 -12 22 -15 22 -4 0 -3 -4 0 -10 3 -5 -3 -10 -14 -10 -12 0 -21 -4 -21
-9 0 -14 -32 -23 -44 -11 -5 5 -24 10 -42 10 -26 0 -33 5 -38 26 -4 16 -1 35
8 48 8 13 19 49 25 81 16 83 52 186 65 182 6 -2 21 -29 33 -60z m1917 -15 c14
-42 26 -88 26 -100 0 -12 7 -39 16 -60 14 -33 24 -101 41 -278 3 -38 1 -70 -6
-83 -8 -15 -9 -21 -1 -21 6 0 8 -5 5 -10 -4 -6 -11 -7 -17 -4 -7 5 -8 2 -3 -6
4 -7 3 -15 -4 -19 -6 -4 -12 -19 -13 -34 -2 -21 -8 -27 -25 -27 -13 0 -26 6
-29 14 -3 8 -21 17 -40 21 -24 4 -41 16 -57 40 -12 19 -26 33 -32 31 -22 -7
-40 32 -38 80 3 90 20 269 28 289 4 11 10 29 15 40 4 11 18 47 30 80 43 111
50 125 64 125 8 0 24 -32 40 -78z m893 6 c65 -40 133 -83 152 -95 25 -17 43
-22 63 -18 27 6 28 5 28 -32 0 -33 -21 -110 -37 -136 -3 -4 -18 16 -33 45 -37
69 -52 78 -92 55 -29 -16 -32 -17 -57 -1 -44 28 -104 99 -133 157 -28 54 -36
97 -18 97 5 0 62 -32 127 -72z m1750 -14 c12 -38 22 -81 22 -95 1 -15 8 -46
16 -69 8 -23 15 -67 15 -97 0 -30 5 -74 11 -99 6 -25 10 -47 7 -49 -8 -8 -109
-25 -175 -30 -61 -5 -63 -4 -63 19 0 14 4 36 9 49 5 13 12 56 15 95 3 39 14
98 26 131 11 33 20 66 20 73 0 26 54 148 64 145 6 -2 21 -35 33 -73z m-5929
-9 c12 -41 22 -81 22 -90 0 -20 -16 -19 -24 1 -5 13 -9 14 -20 5 -17 -14 -31
2 -20 22 3 6 -6 -1 -20 -18 l-26 -30 6 30 c3 17 14 51 25 77 10 26 19 54 19
62 0 38 18 10 38 -59z m6535 -12 c32 -101 36 -143 12 -123 -8 7 -15 8 -15 3 0
-6 -13 -9 -30 -7 -22 3 -28 0 -24 -11 5 -11 -2 -15 -25 -15 -17 0 -31 -4 -31
-10 0 -5 -5 -10 -11 -10 -8 0 -8 4 -2 13 6 6 14 30 17 52 4 22 18 65 31 95 13
30 27 65 30 78 4 12 9 22 13 22 4 0 20 -39 35 -87z m737 -68 c0 -24 -5 -31
-20 -32 -11 -1 -22 2 -25 8 -10 15 -25 10 -19 -6 4 -8 1 -15 -6 -15 -14 0 -9
41 17 137 l18 62 17 -62 c9 -34 17 -76 18 -92z m720 106 c7 -27 6 -31 -11 -31
-20 0 -23 10 -13 48 8 27 12 25 24 -17z m-5302 -66 c47 -128 60 -176 68 -245
4 -36 10 -72 15 -80 14 -29 21 -103 9 -95 -6 4 -40 8 -76 9 -35 2 -67 6 -71 9
-3 4 0 7 8 7 32 1 -17 20 -51 20 -55 0 -63 10 -45 53 8 20 15 55 15 78 0 42
12 95 50 216 26 82 40 117 44 112 2 -2 17 -40 34 -84z m2671 -72 c23 -69 41
-142 41 -166 0 -24 7 -65 16 -90 9 -26 13 -54 10 -62 -5 -14 -10 -14 -41 -1
-24 10 -55 13 -102 9 -38 -2 -78 -1 -90 4 -22 8 -22 10 -7 38 8 17 18 53 20
80 7 76 44 216 80 300 19 47 19 48 73 -112z m-3425 60 c40 -140 42 -208 9
-281 -11 -25 -19 -31 -33 -27 -12 4 -22 -1 -29 -12 -10 -17 -10 -17 -11 0 0 9
-4 17 -10 17 -5 0 -10 -5 -10 -12 0 -6 -3 -9 -6 -6 -3 4 0 17 7 30 7 12 12 38
10 55 -6 75 30 293 48 293 4 0 15 -26 25 -57z m-4076 -26 c17 -20 97 -184 135
-277 19 -47 54 -125 77 -175 42 -89 61 -155 44 -155 -24 1 -48 37 -107 160
-84 174 -147 310 -147 318 0 3 -6 13 -14 21 -8 9 -17 40 -21 69 -6 42 -4 52 8
52 8 0 19 -6 25 -13z m8373 -170 c-10 -9 -11 -8 -5 6 3 10 9 15 12 12 3 -3 0
-11 -7 -18z m-4258 -117 c3 -11 1 -18 -4 -14 -5 3 -9 12 -9 20 0 20 7 17 13
-6z m4153 -9 c0 -11 -5 -17 -13 -14 -17 6 -17 20 0 26 6 3 12 6 12 6 1 1 1 -7
1 -18z m664 -41 c0 -5 -5 -10 -11 -10 -5 0 -7 5 -4 10 3 6 8 10 11 10 2 0 4
-4 4 -10z m-5057 -34 c4 -10 -10 -15 -56 -20 -36 -5 -71 -15 -85 -27 -29 -22
-52 -25 -52 -6 0 37 180 86 193 53z m257 -7 c0 -13 -26 -17 -88 -15 -35 2 -68
8 -74 14 -9 9 11 11 75 9 48 -1 87 -5 87 -8z m-1878 -39 c14 -10 28 -16 32
-13 3 3 6 -1 6 -10 0 -11 -8 -17 -25 -17 -14 0 -25 5 -25 10 0 6 -11 15 -25
20 -14 5 -25 14 -25 20 0 17 36 11 62 -10z m716 -6 c29 -20 28 -34 -4 -34 -14
0 -22 4 -19 10 3 5 -6 12 -20 16 -13 3 -22 10 -19 15 8 14 37 11 62 -7z m285
-13 c5 -1 6 -5 3 -10 -3 -5 -27 -7 -53 -6 -27 2 -65 4 -85 4 -21 0 -38 5 -38
10 0 9 84 9 173 2z m277 -27 c49 -20 54 -39 8 -29 -18 4 -66 9 -105 12 -54 3
-73 8 -73 19 0 20 118 19 170 -2z m-1402 -31 c-10 -2 -28 -2 -40 0 -13 2 -5 4
17 4 22 1 32 -1 23 -4z m-1894 -345 c9 -56 12 -168 5 -168 -3 0 -9 28 -13 63
-4 34 -10 79 -13 100 -3 23 -2 37 5 37 6 0 13 -15 16 -32z"/>
<path d="M4068 5033 c7 -3 16 -2 19 1 4 3 -2 6 -13 5 -11 0 -14 -3 -6 -6z"/>
<path d="M3131 4303 c0 -12 -4 -30 -7 -40 -5 -14 -4 -15 5 -7 7 6 11 24 8 40
-3 21 -4 23 -6 7z"/>
<path d="M3197 3569 c7 -7 15 -10 18 -7 3 3 -2 9 -12 12 -14 6 -15 5 -6 -5z"/>
<path d="M3044 3376 c3 -16 8 -31 11 -34 9 -10 5 33 -5 48 -8 11 -9 8 -6 -14z"/>
<path d="M6634 1104 c-1 -13 2 -21 7 -18 11 6 12 31 2 37 -5 3 -9 -6 -9 -19z"/>
<path d="M6660 1099 c0 -5 5 -7 10 -4 6 3 10 8 10 11 0 2 -4 4 -10 4 -5 0 -10
-5 -10 -11z"/>
<path d="M7580 6150 c0 -5 5 -10 10 -10 6 0 10 5 10 10 0 6 -4 10 -10 10 -5 0
-10 -4 -10 -10z"/>
<path d="M7815 6090 c3 -5 8 -10 11 -10 2 0 4 5 4 10 0 6 -5 10 -11 10 -5 0
-7 -4 -4 -10z"/>
<path d="M6418 5710 c-10 -6 -18 -22 -18 -34 0 -17 -7 -26 -23 -30 -25 -6 -67
-87 -67 -129 0 -12 -7 -35 -15 -51 -8 -15 -15 -30 -15 -31 0 -2 16 -12 35 -24
33 -19 35 -24 35 -71 0 -47 -3 -54 -44 -93 -75 -71 -116 -142 -116 -197 0 -30
-10 -68 -26 -104 -19 -42 -25 -71 -24 -113 1 -32 1 -63 1 -69 -1 -6 -16 -18
-33 -27 -18 -10 -46 -26 -63 -36 -39 -25 -41 -25 -67 4 -24 28 -56 33 -64 11
-9 -23 15 -123 37 -149 10 -14 19 -34 19 -46 0 -11 8 -25 18 -30 10 -5 38 -56
62 -113 98 -232 183 -378 222 -378 7 0 6 6 -4 18 -18 20 -98 199 -162 362 -51
128 -59 190 -26 190 15 0 20 -7 20 -25 0 -14 4 -25 10 -25 5 0 12 11 16 25 3
14 9 25 13 25 14 0 45 -75 42 -103 -2 -21 3 -29 23 -37 38 -14 53 -47 60 -133
7 -92 49 -226 101 -320 29 -54 35 -72 30 -100 -8 -44 3 -51 49 -32 22 9 53 14
76 11 38 -5 41 -3 66 40 19 32 41 52 76 70 27 14 53 22 58 19 6 -4 10 -26 10
-50 0 -35 4 -45 20 -50 11 -3 25 -3 31 1 6 3 21 2 32 -4 85 -39 89 -38 127 23
17 28 33 37 93 55 96 29 123 39 182 69 67 34 88 37 175 25 34 -5 55 -15 86
-46 49 -47 79 -46 92 5 11 37 -6 88 -41 125 -61 66 -168 140 -224 157 -71 21
-110 38 -144 66 -63 51 -242 67 -287 26 -22 -20 -32 -13 -32 21 0 22 -2 23
-42 17 -24 -4 -52 -14 -63 -21 -29 -21 -54 -17 -67 11 -8 19 -8 31 1 51 10 22
7 38 -14 102 -24 72 -25 77 -8 89 16 12 13 17 -31 62 -37 37 -47 54 -42 69 4
11 2 23 -5 27 -12 8 -4 82 13 121 14 30 53 32 88 4 34 -27 66 -25 85 4 26 39
11 93 -72 262 -14 27 -40 61 -59 73 -46 32 -84 71 -84 87 0 7 23 48 50 90 37
56 50 86 50 113 0 45 -27 98 -61 124 -31 22 -135 33 -161 17z m337 -1340 c3
-5 2 -10 -4 -10 -5 0 -13 5 -16 10 -3 6 -2 10 4 10 5 0 13 -4 16 -10z m62 -52
c-3 -7 -5 -2 -5 12 0 14 2 19 5 13 2 -7 2 -19 0 -25z"/>
<path d="M8786 5541 c-4 -7 -5 -15 -2 -18 9 -9 19 4 14 18 -4 11 -6 11 -12 0z"/>
<path d="M10540 4550 c0 -5 5 -10 11 -10 5 0 7 5 4 10 -3 6 -8 10 -11 10 -2 0
-4 -4 -4 -10z"/>
<path d="M10631 4384 c0 -11 3 -14 6 -6 3 7 2 16 -1 19 -3 4 -6 -2 -5 -13z"/>
<path d="M3786 4163 c-6 -14 -5 -15 5 -6 7 7 10 15 7 18 -3 3 -9 -2 -12 -12z"/>
<path d="M3917 3854 c-4 -4 -7 -23 -7 -43 0 -31 2 -34 15 -21 10 11 12 24 7
43 -4 16 -11 25 -15 21z"/>
<path d="M12030 2820 c0 -11 6 -20 14 -20 7 0 16 9 19 20 4 15 0 20 -14 20
-12 0 -19 -7 -19 -20z"/>
<path d="M4146 2495 c-14 -11 -16 -15 -5 -15 8 0 23 7 33 15 14 11 16 15 5 15
-8 0 -23 -7 -33 -15z"/>
<path d="M4015 2450 c3 -5 8 -10 11 -10 2 0 4 5 4 10 0 6 -5 10 -11 10 -5 0
-7 -4 -4 -10z"/>
<path d="M9056 2413 c-7 -8 -11 -9 -37 -12 -6 0 -8 -8 -5 -17 3 -8 2 -13 -3
-10 -5 3 -15 -1 -22 -10 -11 -13 -10 -17 4 -25 9 -6 17 -17 17 -24 0 -8 8 -15
18 -15 11 0 33 -7 50 -16 28 -13 34 -13 54 0 22 15 27 16 48 16 6 0 10 5 10
11 0 13 -63 1 -68 -12 -2 -5 -8 -9 -14 -9 -17 0 13 30 31 30 14 1 14 2 -1 14
-23 17 -23 26 1 26 11 0 23 5 27 12 5 8 -3 9 -28 5 -31 -5 -37 -2 -47 19 -11
25 -22 30 -35 17z"/>
<path d="M4300 2098 c0 -8 7 -23 15 -34 14 -19 14 -19 15 2 0 12 -7 27 -15 34
-12 10 -15 10 -15 -2z"/>
<path d="M6425 1160 c-3 -5 3 -10 14 -10 12 0 21 5 21 10 0 6 -6 10 -14 10 -8
0 -18 -4 -21 -10z"/>
<path d="M5185 980 c3 -5 12 -7 20 -3 21 7 19 13 -6 13 -11 0 -18 -4 -14 -10z"/>
</g>
</svg>
